# xmcd CD database file
#
# Track frame offsets:
#	150
#	37512
#	69547
#	95291
#	113105
#	136628
#	162727
#	186610
#
# Disc length: 2827 seconds
#
# Revision: 0
# Processed by: cddbd v1.4PL0 Copyright (c) Steve Scherf et al.
# Submitted via: CDex 1.51
#
DISCID=650b0908
DTITLE=Medwyn Goodall - Winter
DYEAR=2001
DGENRE=New Age
TTITLE0=Medwyn Goodall - Winter Light
TTITLE1=Medwyn Goodall - First Snow
TTITLE2=Medwyn Goodall - By The Fire
TTITLE3=Medwyn Goodall - The Mist On The Hills
TTITLE4=Medwyn Goodall - Companions
TTITLE5=Medwyn Goodall - The Silence
TTITLE6=Medwyn Goodall - Reflections
TTITLE7=Medwyn Goodall - The First Sign Of Spring
EXTD=YEAR: 2001
EXTT0=
EXTT1=
EXTT2=
EXTT3=
EXTT4=
EXTT5=
EXTT6=
EXTT7=
PLAYORDER=
